<svg width="25" height="16" viewBox="0 0 25 16" fill="none" xmlns="http://www.w3.org/2000/svg">
<g id="Paypal" clip-path="url(#clip0_2412_13988)">
<path id="Rectangle 1" d="M0.255859 2C0.255859 0.895431 1.15129 0 2.25586 0H22.2559C23.3604 0 24.2559 0.895431 24.2559 2V14C24.2559 15.1046 23.3604 16 22.2559 16H2.25586C1.15129 16 0.255859 15.1046 0.255859 14V2Z" fill="#D8DDF3"/>
<g id="Group 11">
<path id="XMLID 8" d="M16.3837 5.01605C16.3837 5.08022 16.3837 5.1444 16.3195 5.20857C15.8062 7.77541 14.1377 8.60963 11.9559 8.60963H10.865C10.6083 8.60963 10.3516 8.80215 10.3516 9.05884L9.77409 12.6524L9.64575 13.6792C9.64575 13.8717 9.77409 14 9.90243 14H11.8917C12.1484 14 12.3409 13.8075 12.3409 13.615V13.4866L12.726 11.1765V11.0481C12.7901 10.7915 12.9827 10.6631 13.1752 10.6631H13.496C15.4212 10.6631 16.8971 9.89306 17.2821 7.64707C17.4746 6.6845 17.3463 5.91445 16.8971 5.40108C16.7687 5.27274 16.5762 5.14439 16.3837 5.01605Z" fill="#2199D6"/>
<path id="XMLID 6" d="M15.8703 4.82352C15.8061 4.82352 15.7419 4.75935 15.6136 4.75935C15.5494 4.75935 15.4211 4.69518 15.3569 4.69518C15.036 4.63101 14.7152 4.63101 14.3943 4.63101H11.4425C11.3783 4.63101 11.3141 4.63101 11.25 4.69518C11.1216 4.75935 10.9933 4.8877 10.9933 5.01604L10.3516 8.99465V9.12299C10.4157 8.86631 10.6082 8.6738 10.8649 8.6738H11.9558C14.1377 8.6738 15.8061 7.7754 16.3195 5.27272C16.3195 5.20855 16.3195 5.14438 16.3836 5.08021C16.2553 5.01604 16.127 4.95187 15.9986 4.8877C15.9344 4.82353 15.8703 4.82352 15.8703 4.82352Z" fill="#252C5E"/>
<path id="XMLID 5" d="M10.9933 5.01604C10.9933 4.8877 11.1217 4.75936 11.25 4.69519C11.3142 4.69519 11.3784 4.63102 11.4425 4.63102H14.3944C14.7153 4.63102 15.1003 4.63101 15.357 4.69519C15.4211 4.69519 15.5495 4.69519 15.6137 4.75936C15.6778 4.75936 15.742 4.82353 15.8703 4.82353C15.9345 4.82353 15.9345 4.82353 15.9987 4.8877C16.127 4.95187 16.2554 5.01604 16.3837 5.08021C16.512 4.11765 16.3837 3.47593 15.8703 2.89839C15.2928 2.25668 14.2661 2 12.9826 2H9.19654C8.93986 2 8.68317 2.19251 8.68317 2.4492L7.14307 12.3316C7.14307 12.5241 7.27141 12.7166 7.46392 12.7166H9.77408L10.3516 8.99465L10.9933 5.01604Z" fill="#263577"/>
</g>
</g>
<defs>
<clipPath id="clip0_2412_13988">
<rect width="24" height="16" fill="white" transform="translate(0.255859)"/>
</clipPath>
</defs>
</svg>
